<?xml version="1.0" standalone="no"?>
<!DOCTYPE svg PUBLIC "-//W3C//DTD SVG 20010904//EN"
 "http://www.w3.org/TR/2001/REC-SVG-20010904/DTD/svg10.dtd">
<svg version="1.0" xmlns="http://www.w3.org/2000/svg"
 width="300.000000pt" height="300.000000pt" viewBox="0 0 300.000000 300.000000"
 preserveAspectRatio="xMidYMid meet">
<metadata>
Created by potrace 1.14, written by Peter Selinger 2001-2017
</metadata>
<g transform="translate(0.000000,300.000000) scale(0.100000,-0.100000)"
fill="#000000" stroke="none">
<path d="M1350 2993 c-148 -22 -226 -38 -298 -64 -48 -16 -91 -31 -97 -33
-121 -39 -327 -163 -434 -261 -290 -263 -450 -556 -506 -924 -19 -123 -12
-370 13 -496 75 -373 282 -701 583 -921 184 -135 368 -216 599 -265 159 -33
438 -33 586 2 27 6 62 13 79 16 39 7 198 64 271 99 85 40 209 118 288 181 281
227 467 533 537 884 27 133 33 373 12 509 -97 644 -591 1146 -1238 1260 -67
12 -342 21 -395 13z"/>
</g>
</svg>
